<svg width="22" height="22" viewBox="0 0 22 22" fill="none" xmlns="http://www.w3.org/2000/svg">
<path fill-rule="evenodd" clip-rule="evenodd" d="M5.66412 3.8023C5.50428 3.80196 5.3502 3.82005 5.20378 3.85444C5.00307 3.41206 4.73794 3.01516 4.4364 2.71362C3.92459 2.20181 3.1174 2.00002 2 2.00002V3.80002C2.6826 3.80002 3.07541 3.89822 3.1636 3.98641C3.50378 4.32658 3.8 5.01777 3.8 5.60002L3.80905 5.72729L4.69093 11.9005C3.21532 11.977 2.07218 13.123 2.00111 14.5554L2 15.5C2.08714 16.9796 3.22648 18.1177 4.64892 18.1986L4.85323 18.1989C5.22356 19.2481 6.22398 20 7.4 20C8.5756 20 9.57571 19.2487 9.94636 18.2H12.0536C12.4243 19.2487 13.4244 20 14.6 20C16.0912 20 17.3 18.7912 17.3 17.3C17.3 15.8088 16.0912 14.6 14.6 14.6C13.4244 14.6 12.4243 15.3513 12.0536 16.4H9.94636C9.57571 15.3513 8.5756 14.6 7.4 14.6C6.2244 14.6 5.22429 15.3513 4.85364 16.4H4.7C4.24101 16.3725 3.82928 15.9612 3.79838 15.4461L3.8 14.6C3.82427 14.1332 4.23318 13.7243 4.7446 13.6989L6.52132 13.6993L6.5342 13.7H15.6052L15.738 13.6579C16.4204 13.4413 16.9667 12.9275 17.2253 12.2623L17.3201 12.0746L17.6282 11.4643C17.9469 10.8325 18.2656 10.1997 18.5762 9.58144C19.3369 8.06698 19.8153 7.10451 19.9213 6.86817C20.4654 5.65442 19.3632 4.72023 18.2366 4.70034L5.66412 3.8023ZM15.2924 11.9H6.60154C6.54375 11.8839 6.49972 11.835 6.4911 11.774L5.60919 5.60065L18.104 6.49542C17.8854 6.94128 17.4879 7.73763 16.9676 8.77347L16.9546 8.79942C16.6576 9.39066 16.3393 10.0226 16.0211 10.6536L15.7134 11.2631L15.5968 11.4939L15.5529 11.596C15.5058 11.727 15.4125 11.8346 15.2924 11.9ZM14.6 18.1999C15.097 18.1999 15.5 17.797 15.5 17.2999C15.5 16.8029 15.097 16.3999 14.6 16.3999C14.1029 16.3999 13.7 16.8029 13.7 17.2999C13.7 17.797 14.1029 18.1999 14.6 18.1999ZM8.3 17.2999C8.3 17.797 7.89706 18.1999 7.4 18.1999C6.90294 18.1999 6.5 17.797 6.5 17.2999C6.5 16.8029 6.90294 16.3999 7.4 16.3999C7.89706 16.3999 8.3 16.8029 8.3 17.2999Z" fill="black"/>
</svg>
