<svg width="22" height="22" viewBox="0 0 22 22" fill="none" xmlns="http://www.w3.org/2000/svg">
<path fill-rule="evenodd" clip-rule="evenodd" d="M11 20.9C5.53235 20.9 1.09997 16.4676 1.09997 11C1.09997 5.53234 5.53235 1.09996 11 1.09996C16.4676 1.09996 20.9 5.53234 20.9 11C20.9 16.4676 16.4676 20.9 11 20.9ZM11 19.1C15.4735 19.1 19.1 15.4735 19.1 11C19.1 6.52645 15.4735 2.89996 11 2.89996C6.52646 2.89996 2.89997 6.52645 2.89997 11C2.89997 15.4735 6.52646 19.1 11 19.1ZM13.9636 7.66357L9.19997 12.4272L7.13637 10.3636L5.86358 11.6364L9.19997 14.9728L15.2364 8.93636L13.9636 7.66357Z" fill="#27AE60"/>
</svg>
