<svg width="22" height="22" viewBox="0 0 22 22" fill="none" xmlns="http://www.w3.org/2000/svg">
<path fill-rule="evenodd" clip-rule="evenodd" d="M15.0979 2.00003C13.795 2.00002 12.9551 2.15523 11.9924 2.62648C11.6359 2.80095 11.3015 3.01107 10.9909 3.2562C10.6923 3.02481 10.3713 2.82434 10.0296 2.65534C9.04816 2.16991 8.16523 2.00002 6.90907 2.00002C3.54477 2.00002 1.09998 4.78756 1.09998 8.4079C1.09998 11.142 2.62442 13.7831 5.46393 16.3369C6.95438 17.6774 8.85737 19.004 10.2202 19.7097L11 20.1135L11.7797 19.7097C13.1426 19.004 15.0456 17.6774 16.536 16.3369C19.3755 13.7831 20.9 11.142 20.9 8.4079C20.9 4.82588 18.4321 2.01384 15.0979 2.00003ZM19.1 8.40794C19.1 10.55 17.8276 12.7544 15.3324 14.9986C13.972 16.2222 12.2231 17.4449 11 18.0864C9.77695 17.4449 8.02806 16.2222 6.66767 14.9986C4.17246 12.7544 2.90002 10.55 2.90002 8.40794C2.90002 5.733 4.5953 3.80005 6.90911 3.80005C7.90787 3.80005 8.52333 3.91848 9.23164 4.26881C9.65002 4.47574 10.0198 4.74899 10.3399 5.09045L11.0021 5.79688L11.6583 5.08485C11.9856 4.72971 12.3608 4.45025 12.7837 4.24324C13.4713 3.9067 14.0483 3.80005 15.0942 3.80006C17.3794 3.80953 19.1 5.77012 19.1 8.40794Z" fill="black"/>
</svg>
